<svg xmlns="http://www.w3.org/2000/svg" viewBox="0 0 95.98 59.94"><defs><style>.cls-1{fill:#d1b749;}</style></defs><g id="Calque_2" data-name="Calque 2"><g id="Calque_2-2" data-name="Calque 2"><path class="cls-1" d="M42,24.44h0L40.67,24,40,23.7l-.31-.12L36.5,22.41,35.31,22l-2.08-.77L32,20.76l-1.58-.59-2.31-.85-.3-.11-1.22-.45-1.17-.43-1.05-.39-.47-.17-.35-.13L3.33,10.15l-.8-.3-.42.75C-1.48,17-.47,22.51,5,26.22c3.27,2.23,8,3.64,13,4.23C18,36,21,40.17,26.36,42.39l.69.29L41.1,25.52Zm-20.81-.66,12.15,3.78h0A41.65,41.65,0,0,1,20,28.63,16.74,16.74,0,0,1,21.18,23.78ZM24.06,20l1.27.47a2,2,0,0,0,.34.12l1.88.7L31,22.49l1.06.39,4.45,1.65.82.3.52.19.67.25a10.54,10.54,0,0,1-2,1.17h0L22.05,22a7.05,7.05,0,0,1,1.62-2.14ZM3.45,12.33,21.62,19a12.73,12.73,0,0,0-1.52,2.3L2.19,15.76A14,14,0,0,1,3.45,12.33ZM2,17.79H2l17.28,5.39A20,20,0,0,0,18,28.44c-4.54-.54-8.84-1.79-11.89-3.87C3.39,22.73,2,20.46,2,17.79Zm21.61,13a40.76,40.76,0,0,0,8.92-.93h0L21.91,36.64h0a10.79,10.79,0,0,1-2-6Q21.74,30.8,23.59,30.8Zm2.86,9.45a12.7,12.7,0,0,1-3.19-2.1h0L33.54,31.6h0Z"/><path class="cls-1" d="M39.38,16.21A3.39,3.39,0,0,0,43,19.61h9.9a3.39,3.39,0,0,0,3.65-3.4,9.14,9.14,0,0,0-2.63-6C55.86,6.49,57.53,2.45,57.53,0h-2c0,2-1.41,5.41-3.08,8.74a22.35,22.35,0,0,0-4-2.76L48,5.75,47.53,6a22.46,22.46,0,0,0-4,2.76C41.85,5.41,40.44,2,40.44,0h-2c0,2.44,1.66,6.49,3.57,10.22A9.14,9.14,0,0,0,39.38,16.21Zm2,0A6.7,6.7,0,0,1,43,12.12h0a60.94,60.94,0,0,0,3.34,5.49H43C42.65,17.61,41.38,17.51,41.38,16.21ZM53,12.12a6.7,6.7,0,0,1,1.63,4.09c0,1.3-1.27,1.4-1.65,1.4H49.6A60.66,60.66,0,0,0,53,12.12ZM48,8a20.68,20.68,0,0,1,3.51,2.56A64.19,64.19,0,0,1,48,16.46a64.19,64.19,0,0,1-3.51-5.88A20.68,20.68,0,0,1,48,8Z"/><path class="cls-1" d="M93.85,10.6l-.42-.75-.8.3L72.4,17.63h0l-.36.14-.67.25-5.08,1.88L65,20.36l-5.55,2.05-.55.2-.52.19L57.9,23l-2.61,1L54,24.43h0l.88,1.07.28.34L68.91,42.68l.69-.29c5.25-2.18,8.22-6.29,8.44-11.65,4.83-.59,9.41-2,12.7-4.18C96.42,22.77,97.52,17.1,93.85,10.6Zm-1.34,1.73a14,14,0,0,1,1.26,3.43l-17.9,5.58h0A12.46,12.46,0,0,0,74.35,19ZM74.79,23.77A17.08,17.08,0,0,1,76,28.9a39.25,39.25,0,0,1-13.68-1.25h0l12.45-3.88Zm-15.9,1,1.18-.44.86-.32c1.43-.52,3.06-1.12,4.75-1.76l1.3-.47,1.25-.47,2.67-1,.7-.26.35-.13a2.06,2.06,0,0,0,.35-.12,7.22,7.22,0,0,1,1.62,2.14h0L59.34,26.49a11.07,11.07,0,0,1-1.9-1.2ZM69.51,40.25,62.42,31.6h0L72.7,38.15A12.18,12.18,0,0,1,69.51,40.25Zm4.55-3.62h0L64,30.2h0a39.57,39.57,0,0,0,8.55.88c1.17,0,2.35,0,3.53-.14A10.66,10.66,0,0,1,74.06,36.63ZM89.63,24.9A27.24,27.24,0,0,1,78,28.71a19.36,19.36,0,0,0-1.31-5.53L94,17.79h0C94,20.6,92.52,23,89.63,24.9Z"/><path class="cls-1" d="M55.74,36.66a17.65,17.65,0,0,0-1.05-2.25,18.49,18.49,0,0,0-1.3-2,20.89,20.89,0,0,0-4.84-4.66l-.57-.4-.57.4a20.89,20.89,0,0,0-4.84,4.66,18.49,18.49,0,0,0-1.3,2,17.65,17.65,0,0,0-1.05,2.25c-.13.31-.24.62-.34.94A18.14,18.14,0,0,0,39,42.72a18.37,18.37,0,0,0,1,6.7,15,15,0,0,0,.81,2,16.62,16.62,0,0,0,1.25,2.25,16.93,16.93,0,0,0,1.42,2,23.24,23.24,0,0,0,3.83,3.78l.62.49.62-.49a23.24,23.24,0,0,0,3.83-3.78,16.93,16.93,0,0,0,1.42-2,16.62,16.62,0,0,0,1.25-2.25,15,15,0,0,0,.81-2A18.37,18.37,0,0,0,57,42.72a17.8,17.8,0,0,0-1-5.51C55.89,37,55.82,36.84,55.74,36.66ZM41.1,45.17A15.35,15.35,0,0,1,41,42.92H55a15.35,15.35,0,0,1-.11,2.25Zm.06-4.25h0a14.08,14.08,0,0,1,.49-2.25H54.31a14.08,14.08,0,0,1,.49,2.25H41.16ZM48,29.81a18.09,18.09,0,0,1,2.83,2.6H45.15A18.09,18.09,0,0,1,48,29.81Zm-4.35,4.6h8.7a13.75,13.75,0,0,1,1.24,2.25H42.39A13.75,13.75,0,0,1,43.63,34.41Zm4.35,23a19.5,19.5,0,0,1-1.8-1.71h3.6A19.5,19.5,0,0,1,48,57.38Zm3.46-3.71H44.52a17.3,17.3,0,0,1-1.42-2.25h9.76A17.3,17.3,0,0,1,51.44,53.67Zm-9.27-4.25a16.75,16.75,0,0,1-.71-2.25h13a16.75,16.75,0,0,1-.71,2.25Z"/></g></g></svg>