<?xml version="1.0" encoding="utf-8"?>
<!-- Generator: Adobe Illustrator 24.3.0, SVG Export Plug-In . SVG Version: 6.00 Build 0)  -->
<svg version="1.1" id="Calque_1" xmlns="http://www.w3.org/2000/svg" xmlns:xlink="http://www.w3.org/1999/xlink" x="0px" y="0px"
	 viewBox="0 0 373.8 125" style="enable-background:new 0 0 373.8 125;" xml:space="preserve">
<style type="text/css">
	.st0{fill:none;stroke:#FFFFFF;stroke-width:0.25;stroke-miterlimit:10;}
	.st1{fill:#FFFFFF;}
	.st2{fill:none;}
	.st3{font-family:'Montserrat-Light';}
	.st4{font-size:7px;}
</style>
<g>
	<g>
		<polyline class="st0" points="202.7,51.2 255.8,19.2 277.9,19.2 		"/>
		<g>
			<path class="st1" d="M203,51.6c-0.2,0.1-0.5,0.1-0.6-0.2s-0.1-0.5,0.2-0.6c0.2-0.1,0.5-0.1,0.6,0.2
				C203.3,51.2,203.2,51.4,203,51.6z"/>
		</g>
	</g>
</g>
<g>
	<g>
		<polyline class="st0" points="183.9,39.3 130.8,7.4 108.7,7.4 		"/>
		<g>
			<path class="st1" d="M184.1,38.9c0.2,0.1,0.3,0.4,0.2,0.6s-0.4,0.3-0.6,0.2c-0.2-0.1-0.3-0.4-0.2-0.6
				C183.6,38.9,183.9,38.8,184.1,38.9z"/>
		</g>
	</g>
</g>
<rect x="283" y="14.8" class="st2" width="88.4" height="11.1"/>
<text transform="matrix(1 0 0 1 282.9867 20.0309)" class="st1 st3 st4">vision panoramique</text>
<g>
	<g>
		<polyline class="st0" points="197.7,72.5 255.8,43.1 277.9,43.1 		"/>
		<g>
			<path class="st1" d="M198,72.9c-0.2,0.1-0.5,0-0.6-0.2c-0.1-0.2,0-0.5,0.2-0.6s0.5,0,0.6,0.2C198.3,72.5,198.2,72.8,198,72.9z"/>
		</g>
	</g>
</g>
<rect x="283" y="38.7" class="st2" width="88.4" height="18.4"/>
<text transform="matrix(1 0 0 1 282.9867 43.903)"><tspan x="0" y="0" class="st1 st3 st4">Les orifices respiratoires : </tspan><tspan x="0" y="8.4" class="st1 st3 st4">les stigmates</tspan></text>
<g>
	<g>
		<polyline class="st0" points="197.7,117.7 255.8,92.4 277.9,92.4 		"/>
		<g>
			<path class="st1" d="M197.9,118.1c-0.2,0.1-0.5,0-0.6-0.2c-0.1-0.2,0-0.5,0.2-0.6c0.2-0.1,0.5,0,0.6,0.2
				C198.3,117.7,198.2,118,197.9,118.1z"/>
		</g>
	</g>
</g>
<rect x="283" y="88" class="st2" width="88.4" height="18.4"/>
<text transform="matrix(1 0 0 1 282.9867 93.2243)" class="st1 st3 st4">La dars</text>
<rect x="4.8" y="3.9" class="st2" width="106.3" height="25.1"/>
<text transform="matrix(1 0 0 1 4.7868 9.0556)"><tspan x="0" y="0" class="st1 st3 st4">Deux antennes, comme des </tspan><tspan x="0" y="8.4" class="st1 st3 st4">mains chez les abeilles</tspan></text>
<g>
	<g>
		<polyline class="st0" points="169.7,57.4 130.8,35.9 108.7,35.9 		"/>
		<g>
			<path class="st1" d="M169.9,56.9c0.2,0.1,0.3,0.4,0.2,0.6c-0.1,0.2-0.4,0.3-0.6,0.2c-0.2-0.1-0.3-0.4-0.2-0.6
				C169.4,56.9,169.7,56.8,169.9,56.9z"/>
		</g>
	</g>
</g>
<rect x="4.8" y="32.4" class="st2" width="106.3" height="25.1"/>
<text transform="matrix(1 0 0 1 4.7868 37.5808)"><tspan x="0" y="0" class="st1 st3 st4">Trois paires de pattes avec des </tspan><tspan x="0" y="8.4" class="st1 st3 st4">«corbeilles» pour le pollen</tspan></text>
<g>
	<g>
		<polyline class="st0" points="192.1,90.4 130.8,66.9 108.7,66.9 		"/>
		<g>
			<path class="st1" d="M192.2,90c0.2,0.1,0.4,0.4,0.3,0.6s-0.4,0.4-0.6,0.3c-0.2-0.1-0.4-0.4-0.3-0.6C191.7,90,192,89.9,192.2,90z"
				/>
		</g>
	</g>
</g>
<rect x="4.8" y="63.3" class="st2" width="106.3" height="34.9"/>
<text transform="matrix(1 0 0 1 4.7868 68.5249)"><tspan x="0" y="0" class="st1 st3 st4">Le jabot où l’abeille stocke le </tspan><tspan x="0" y="8.4" class="st1 st3 st4">nectar et l’eau, et les glandes </tspan><tspan x="0" y="16.8" class="st1 st3 st4">cirières qui sécrètent la cire </tspan><tspan x="0" y="25.2" class="st1 st3 st4">pour construire les alvéoles</tspan></text>
</svg>
