<svg xmlns="http://www.w3.org/2000/svg" viewBox="0 0 96.93 59.94"><defs><style>.cls-1{fill:#d1b749;}</style></defs><g id="Calque_2" data-name="Calque 2"><g id="Calque_2-2" data-name="Calque 2"><path class="cls-1" d="M42.48,24.44H31.86c-.56,0-1.13,0-1.69,0H26.09c-.44,0-.85,0-1.25,0h-2L1.26,24.24H.41l-.14.85c-1.2,7.2,1.65,12.07,8,13.7,3.83,1,8.73.7,13.61-.45,2,5.13,6.25,8.07,12,8.33l.75,0L42,25.76ZM22.69,30.93l12.72-.59h0a41.56,41.56,0,0,1-12.19,5.57A17,17,0,0,1,22.69,30.93Zm1.4-4.57h1.72l2,0h4.75l4.75,0h2.14A10.57,10.57,0,0,1,38,28.21h0l-15.08.71a6.82,6.82,0,0,1,.79-2.56Zm-22-.11,19.37.09A12.71,12.71,0,0,0,20.85,29L2.11,29.9A13.94,13.94,0,0,1,2.12,26.25Zm.48,5.63h0L20.68,31a20.11,20.11,0,0,0,.59,5.39c-4.45,1-8.92,1.34-12.49.43Q4,35.64,2.6,31.88Zm24.76,4.83a41.14,41.14,0,0,0,8.07-3.92h0l-7.67,10h0a10.85,10.85,0,0,1-3.93-4.93C25,37.51,26.21,37.14,27.36,36.71Zm5.92,7.91a12.62,12.62,0,0,1-3.71-.89h0L37,34.06h0Z"/><path class="cls-1" d="M39.87,16.21a3.39,3.39,0,0,0,3.65,3.4h9.9a3.39,3.39,0,0,0,3.65-3.4,9.14,9.14,0,0,0-2.63-6C56.35,6.49,58,2.45,58,0H56c0,2-1.41,5.41-3.08,8.74a22.46,22.46,0,0,0-4-2.76l-.45-.23L48,6a22.35,22.35,0,0,0-4,2.76C42.33,5.41,40.92,2,40.92,0h-2c0,2.44,1.67,6.49,3.57,10.22A9.18,9.18,0,0,0,39.87,16.21Zm2,0a6.7,6.7,0,0,1,1.63-4.09h0a63.36,63.36,0,0,0,3.34,5.49H43.52C43.14,17.61,41.87,17.51,41.87,16.21Zm11.57-4.09a6.7,6.7,0,0,1,1.63,4.09c0,1.3-1.27,1.4-1.65,1.4H50.09a60.94,60.94,0,0,0,3.34-5.49Zm-5-4.1A20.68,20.68,0,0,1,52,10.58a66.57,66.57,0,0,1-3.51,5.88A62,62,0,0,1,45,10.58,20.68,20.68,0,0,1,48.47,8Z"/><path class="cls-1" d="M96.66,25.08l-.13-.85h-.86l-21.57.11v0H73l-5.42,0H66.23c-2.15,0-4.22,0-5.92,0H58.65l-2.79,0h-1.4l.46,1.31.14.42,7.2,20.52.74,0c5.68-.25,9.88-3.1,11.92-8.06,4.74,1.1,9.52,1.36,13.36.41C94.92,37.39,97.89,32.44,96.66,25.08Zm-1.85,1.17a14,14,0,0,1,0,3.65L76.1,29h0a12.29,12.29,0,0,0-.65-2.67ZM74.25,30.94a17,17,0,0,1-.6,5.24,39.38,39.38,0,0,1-12.43-5.86h0l13,.61ZM59,26.43h2.18c1.52,0,3.26,0,5.06,0h1.38l1.34,0,2.85,0h.74c.12,0,.25,0,.38,0h.37a7.49,7.49,0,0,1,.79,2.57h0L58.8,28.21a11,11,0,0,1-1.37-1.78Zm4.68,18.19L60,34.06h0l7.42,9.67A12.77,12.77,0,0,1,63.65,44.62Zm5.52-1.85h0l-7.29-9.5h0A39.72,39.72,0,0,0,69.61,37c1.1.4,2.22.75,3.36,1.07A10.67,10.67,0,0,1,69.17,42.77Zm18.64-5.7a27.28,27.28,0,0,1-12.22-.39A19.35,19.35,0,0,0,76.25,31l18.09.85h0C93.36,34.52,91.18,36.26,87.81,37.07Z"/><path class="cls-1" d="M56.23,36.66a17.65,17.65,0,0,0-1-2.25,18.49,18.49,0,0,0-1.3-2A20.89,20.89,0,0,0,49,27.75l-.57-.4-.57.4a20.89,20.89,0,0,0-4.84,4.66,18.49,18.49,0,0,0-1.3,2,17.65,17.65,0,0,0-1,2.25c-.13.31-.24.62-.34.94a18.14,18.14,0,0,0-.88,5.12,18.37,18.37,0,0,0,1,6.7,15,15,0,0,0,.81,2,16.62,16.62,0,0,0,1.25,2.25,16.93,16.93,0,0,0,1.42,2,23.24,23.24,0,0,0,3.83,3.78l.62.49.62-.49a23.24,23.24,0,0,0,3.83-3.78,16.93,16.93,0,0,0,1.42-2,16.62,16.62,0,0,0,1.25-2.25,15,15,0,0,0,.81-2,18.37,18.37,0,0,0,1.05-6.7,17.8,17.8,0,0,0-1-5.51C56.38,37,56.31,36.84,56.23,36.66ZM41.59,45.17a15.35,15.35,0,0,1-.11-2.25h14a15.35,15.35,0,0,1-.11,2.25Zm.06-4.25h0a14.08,14.08,0,0,1,.49-2.25H54.8a14.08,14.08,0,0,1,.49,2.25H41.65Zm6.82-11.11a18.09,18.09,0,0,1,2.83,2.6H45.64A18.09,18.09,0,0,1,48.47,29.81Zm-4.35,4.6h8.7a13.75,13.75,0,0,1,1.24,2.25H42.88A13.75,13.75,0,0,1,44.12,34.41Zm4.35,23a19.5,19.5,0,0,1-1.8-1.71h3.6A19.5,19.5,0,0,1,48.47,57.38Zm3.46-3.71H45a17.3,17.3,0,0,1-1.42-2.25h9.76A17.3,17.3,0,0,1,51.93,53.67Zm-9.27-4.25A16.75,16.75,0,0,1,42,47.17H55a16.75,16.75,0,0,1-.71,2.25Z"/></g></g></svg>